<?xml version="1.0" standalone="no"?>
<!DOCTYPE svg PUBLIC "-//W3C//DTD SVG 20010904//EN"
 "http://www.w3.org/TR/2001/REC-SVG-20010904/DTD/svg10.dtd">
<svg version="1.0" xmlns="http://www.w3.org/2000/svg"
 width="96.000000pt" height="96.000000pt" viewBox="0 0 96.000000 96.000000"
 preserveAspectRatio="xMidYMid meet">
<metadata>
Created by potrace 1.14, written by Peter Selinger 2001-2017
</metadata>
<g transform="translate(0.000000,96.000000) scale(0.100000,-0.100000)"
fill="#000000" stroke="none">
<path d="M387 869 c-126 -30 -237 -131 -285 -259 -32 -87 -26 -205 15 -292 31
-67 44 -77 72 -59 12 8 10 20 -14 73 -25 53 -29 76 -30 148 0 73 4 93 28 142
35 72 97 134 167 167 48 23 68 26 155 26 95 0 100 1 103 22 3 18 -4 24 -35 32
-45 13 -122 13 -176 0z"/>
<path d="M477 749 c-214 -52 -332 -292 -244 -496 14 -32 25 -69 24 -82 -2 -22
9 -30 108 -75 104 -47 114 -50 195 -50 71 0 94 4 142 26 157 73 244 242 206
403 -14 63 -79 204 -114 250 -30 39 -48 44 -66 16 -10 -17 -14 -17 -45 -4 -43
18 -156 24 -206 12z"/>
</g>
</svg>
